<?xml version="1.0" encoding="UTF-8" standalone="no"?>
<!-- Created with Inkscape (http://www.inkscape.org/) -->

<svg
   xmlns:dc="http://purl.org/dc/elements/1.1/"
   xmlns:cc="http://creativecommons.org/ns#"
   xmlns:rdf="http://www.w3.org/1999/02/22-rdf-syntax-ns#"
   xmlns:svg="http://www.w3.org/2000/svg"
   xmlns="http://www.w3.org/2000/svg"
   xmlns:xlink="http://www.w3.org/1999/xlink"
   version="1.1"
   width="1280"
   height="24"
   id="svg2825">
  <metadata
     id="metadata3215">
    <rdf:RDF>
      <cc:Work
         rdf:about="">
        <dc:format>image/svg+xml</dc:format>
        <dc:type
           rdf:resource="http://purl.org/dc/dcmitype/StillImage" />
        <dc:title></dc:title>
      </cc:Work>
    </rdf:RDF>
  </metadata>
  <defs
     id="defs2827">
    <linearGradient
       id="linearGradient4025">
      <stop
         id="stop4027"
         style="stop-color:#065e6f;stop-opacity:1"
         offset="0" />
      <stop
         id="stop4029"
         style="stop-color:#000b0c;stop-opacity:1"
         offset="1" />
    </linearGradient>
    <radialGradient
       cx="639.81055"
       cy="-485.77744"
       r="639.81561"
       fx="639.81055"
       fy="-485.77744"
       id="radialGradient4580"
       xlink:href="#linearGradient4025"
       gradientUnits="userSpaceOnUse"
       gradientTransform="matrix(1.3912623,0.01411327,-2.9608166e-4,0.02918723,-250.47753,7.8231251)" />
  </defs>
  <g
     transform="translate(150,-583.36218)"
     id="layer2" />
  <g
     transform="matrix(0.11369222,0,0,0.27993398,4.877207,-186.19619)"
     id="layer2-1" />
  <path
     d="M 0.36203577,0.20814014 C 0.34600954,0.62166311 0.34375,2.573276 0.34375,3 l 0,15.90625 c 0,2.77 2.2273221,5 5,5 l 1269.21875,0 c 2.7727,0 5,-2.23 5,-5 l 0,-15.90625 c 0,-0.426724 0.018,-2.40552132 0.011,-2.80043622 z"
     id="rect11184-2"
     style="opacity:0.75;fill:url(#radialGradient4580);fill-opacity:1;stroke:#000000;stroke-width:0.39988074;stroke-miterlimit:4;stroke-opacity:1;stroke-dasharray:none" />
  <rect
     width="1279.0602"
     height="0.47369182"
     ry="0"
     x="0.38394353"
     y="-1.7917103"
     transform="scale(1,-1)"
     id="rect5404"
     style="opacity:0.69298245;fill:#000000;fill-opacity:1;stroke:none" />
  <rect
     width="1279.0321"
     height="1.3706504"
     ry="0"
     x="0.33288822"
     y="-6.5225603e-16"
     id="rect6025"
     style="opacity:0.22807019;fill:#ffffff;fill-opacity:1;stroke:none" />
  <g
     id="g3107"
     style="opacity:0.48684214" />
  <rect
     width="1279.2369"
     height="1"
     x="0.33131194"
     y="4"
     id="rect3965"
     style="opacity:0.12719296;fill:#000000;fill-opacity:1;stroke:none" />
  <rect
     width="1279.2354"
     height="1"
     x="0.33288822"
     y="5.8947368"
     id="rect3967"
     style="opacity:0.15;fill:#000000;fill-opacity:1;stroke:none" />
  <rect
     width="1278.9105"
     height="0.89473683"
     x="0.65788591"
     y="-7.7894735"
     transform="scale(1,-1)"
     id="rect3969"
     style="opacity:0.05;fill:#ffffff;fill-opacity:1;stroke:none" />
  <rect
     width="1278.9105"
     height="1.263158"
     x="0.65788591"
     y="7.7894735"
     id="rect3971"
     style="opacity:0.15;fill:#000000;fill-opacity:1;stroke:none" />
  <rect
     width="1279.2369"
     height="0.89473683"
     x="0.33131182"
     y="-9.8421049"
     transform="scale(1,-1)"
     id="rect3973"
     style="opacity:0.05;fill:#ffffff;fill-opacity:1;stroke:none" />
  <rect
     width="1279.2368"
     height="1.263158"
     x="0.33131182"
     y="9.9473686"
     id="rect3975"
     style="opacity:0.15;fill:#000000;fill-opacity:1;stroke:none" />
  <rect
     width="1279.2369"
     height="0.89473683"
     x="0.33131182"
     y="-11.947368"
     transform="scale(1,-1)"
     id="rect3977"
     style="opacity:0.05;fill:#ffffff;fill-opacity:1;stroke:none" />
  <rect
     width="1279.2368"
     height="1.263158"
     x="0.33131182"
     y="11.947369"
     id="rect3979"
     style="opacity:0.15;fill:#000000;fill-opacity:1;stroke:none" />
  <rect
     width="1279.463"
     height="0.89473683"
     x="0.10552945"
     y="-14.157894"
     transform="scale(1,-1)"
     id="rect3981"
     style="opacity:0.05;fill:#ffffff;fill-opacity:1;stroke:none" />
  <rect
     width="1279.2368"
     height="1.263158"
     x="0.33131182"
     y="14.210526"
     id="rect4011"
     style="opacity:0.15;fill:#000000;fill-opacity:1;stroke:none" />
  <rect
     width="1279.2352"
     height="0.89473683"
     x="0.33288822"
     y="-16.36842"
     transform="scale(1,-1)"
     id="rect4013"
     style="opacity:0.05;fill:#ffffff;fill-opacity:1;stroke:none" />
  <rect
     width="1279.2369"
     height="1.263158"
     x="0.33131182"
     y="16.473684"
     id="rect4015"
     style="opacity:0.15;fill:#000000;fill-opacity:1;stroke:none" />
  <rect
     width="1279.2354"
     height="0.89473683"
     x="0.33288822"
     y="-18.631578"
     transform="scale(1,-1)"
     id="rect4017"
     style="opacity:0.05;fill:#ffffff;fill-opacity:1;stroke:none" />
  <rect
     width="1279.2368"
     height="1.263158"
     x="0.33131182"
     y="18.736843"
     id="rect4019"
     style="opacity:0.15;fill:#000000;fill-opacity:1;stroke:none" />
  <path
     d="m 0.2962463,-0.19811028 c -0.0160262,0.413523 0.00803,2.75987268 0.00803,3.18659668 l 0,15.9062506 c 0,2.77 2.2273221,5 5,5 l 1269.2187237,0 c 2.7727,0 5,-2.23 5,-5 l 0,-15.9062506 c 0,-0.426724 0.018,-2.82657387 0.011,-3.22148877 z"
     id="path4500"
     style="fill:none;stroke:#000000;stroke-width:0.39988074;stroke-miterlimit:4;stroke-opacity:1;stroke-dasharray:none" />
  <path
     d="m 0.73122175,-0.18661044 c -0.0160167,0.41352348 -0.018275,2.36513864 -0.018275,2.79186314 l 0,16.2220583 c 0,2.770003 2.00231365,4.670944 4.77334305,4.671059 L 1274.3582,23.550998 c 2.7711,1.15e-4 4.8129,-2.19053 4.8129,-4.960533 l 0,-15.9852163 c 0,-0.4267245 0.018,-2.46134831 0.011,-2.85626367 z"
     id="path4504"
     style="opacity:0.40789472;fill:none;stroke:#ffffff;stroke-width:0.39976206;stroke-miterlimit:4;stroke-opacity:1;stroke-dasharray:none" />
  <path
     d="m 126.03125,0.03125 c 98.81944,8.0581948 285.28766,13.5 499.21875,13.5 213.91812,0 400.3947,-5.4426123 499.2188,-13.5 l -998.43755,0 z"
     id="path5602"
     style="opacity:0.1535088;fill:#adfffb;fill-opacity:1;stroke:none" />
</svg>
